Coordinates
version=1
nRows=4
nColumns=63
inDegrees=yes

Units are S.I. units (second, meters, Newtons, ...)
If the header above contains a line with 'inDegrees', this indicates whether rotational values are in degrees (yes) or radians (no).

endheader
time	pelvis_tilt	pelvis_list	pelvis_rotation	pelvis_tx	pelvis_ty	pelvis_tz	hip_flexion_r	hip_adduction_r	hip_rotation_r	knee_angle_r	knee_angle_r_beta	ankle_angle_r	subtalar_angle_r	mtp_angle_r	hip_flexion_l	hip_adduction_l	hip_rotation_l	knee_angle_l	knee_angle_l_beta	ankle_angle_l	subtalar_angle_l	mtp_angle_l	L5_S1_Flex_Ext	L5_S1_Lat_Bending	L5_S1_axial_rotation	L4_L5_Flex_Ext	L4_L5_Lat_Bending	L4_L5_axial_rotation	L3_L4_Flex_Ext	L3_L4_Lat_Bending	L3_L4_axial_rotation	L2_L3_Flex_Ext	L2_L3_Lat_Bending	L2_L3_axial_rotation	L1_L2_Flex_Ext	L1_L2_Lat_Bending	L1_L2_axial_rotation	L1_T12_Flex_Ext	L1_T12_Lat_Bending	L1_T12_axial_rotation	Abs_r3	Abs_r2	Abs_r1	Abs_t1	Abs_t2	neck_flexion	neck_bending	neck_rotation	arm_flex_r	arm_add_r	arm_rot_r	elbow_flex_r	pro_sup_r	wrist_flex_r	wrist_dev_r	arm_flex_l	arm_add_l	arm_rot_l	elbow_flex_l	pro_sup_l	wrist_flex_l	wrist_dev_l
      0.00800000	    -41.82057937	     -0.65426703	     -2.47581033	     -0.14835097	      1.02608859	      0.03444044	    116.96178703	      0.55462965	      4.95651268	    113.88075773	      1.98759418	     12.28381347	    -14.64616686	      0.00000000	     74.70304403	     -7.26827457	     -2.32352938	     52.42406473	      0.91497254	      0.19161454	    -13.01161516	      0.00000000	     -0.06787958	      0.31497237	      0.30040903	     -0.12605917	      0.41891325	      0.31918460	     -0.11151937	      0.76582382	      0.31918460	     -0.07757957	      0.76582382	      0.26285791	     -0.06303298	      0.64229166	      0.24408234	     -0.03878639	      0.48789220	      0.22530678	     -0.48485707	      3.56303044	      1.67078493	      0.00000000	      0.00000000	      0.00000000	      0.00000000	      0.00000001	     68.09846784	    -18.84120042	     34.92806483	     53.97577756	     67.90578515	      0.00000000	      2.88519240	     62.62271951	    -22.93718113	     26.05149288	     53.26435834	     68.29879353	      0.00000000	      2.88519240
      0.01700000	    -41.87304505	     -0.83640702	     -2.38809302	     -0.14924282	      1.02719039	      0.03383736	    117.07205333	      0.80107475	      4.91804631	    109.94062211	      1.91882584	     12.75352818	    -14.02111332	      0.00000000	     76.36801743	     -7.62117536	     -2.03740856	     58.48896773	      1.02082506	     -2.55463313	    -14.78237238	      0.00000000	     -0.06614261	      0.35580230	      0.37308739	     -0.12283344	      0.47321707	      0.39640535	     -0.10866570	      0.86509772	      0.39640535	     -0.07559439	      0.86509772	      0.32645147	     -0.06142003	      0.72555206	      0.30313350	     -0.03779389	      0.55113777	      0.27981554	     -0.47245006	      4.02490683	      2.07500014	      0.00000000	      0.00000000	      0.00000000	      0.00000000	      0.00000001	     68.30175257	    -19.17498038	     34.89313440	     53.82774641	     67.47799542	      0.00000000	      3.00603619	     62.62171561	    -22.21646692	     25.98803144	     52.81414272	     68.08793584	      0.00000000	      3.00603619
      0.02500000	    -41.89579392	     -0.66049471	     -2.14042756	     -0.14968864	      1.02724040	      0.03349850	    116.90573853	      0.72033809	      5.23439381	    108.58759748	      1.89521110	     12.56196938	    -13.84554498	      0.00000000	     77.02370174	     -7.38655428	     -1.91889263	     60.42620231	      1.05463618	     -3.85346225	    -15.28432744	      0.00000000	     -0.06588294	      0.33761847	      0.32757419	     -0.12235120	      0.44903256	      0.34804758	     -0.10823907	      0.82088554	      0.34804758	     -0.07529761	      0.82088554	      0.28662742	     -0.06117889	      0.68847158	      0.26615403	     -0.03764551	      0.52297100	      0.24568064	     -0.47059522	      3.81920762	      1.82186937	      0.00000000	      0.00000000	      0.00000000	      0.00000000	      0.00000001	     68.40106610	    -19.14747419	     35.13160144	     53.79422185	     66.05904224	      0.00000000	      3.24436393	     62.63976713	    -22.26576320	     25.93309856	     52.88976733	     66.78020639	      0.00000000	      3.24436393
      0.03300000	    -41.91056407	     -0.53131339	     -1.89382256	     -0.15011881	      1.02724969	      0.03317355	    116.55097649	      0.60516795	      5.47879418	    106.93159979	      1.86630849	     12.57347316	    -13.60719761	      0.00000000	     77.80317053	     -7.17759996	     -1.67259914	     62.70035436	      1.09432763	     -4.94347188	    -15.49505611	      0.00000000	     -0.06443801	      0.32532083	      0.28088247	     -0.11966783	      0.43267670	      0.29843762	     -0.10586521	      0.79098506	      0.29843762	     -0.07364620	      0.79098506	      0.24577216	     -0.05983714	      0.66339423	      0.22821701	     -0.03681988	      0.50392196	      0.21066185	     -0.46027427	      3.68009425	      1.56218402	      0.00000000	      0.00000000	      0.00000000	      0.00000000	      0.00000001	     68.44313945	    -19.09171664	     35.20528520	     53.80576568	     65.27620032	      0.00000000	      3.37399004	     62.66695248	    -22.31992052	     25.94442481	     52.92837307	     66.09510502	      0.00000000	      3.37399004
